<?xml version="1.0" encoding="UTF-8" standalone="no"?>
<!DOCTYPE svg PUBLIC "-//W3C//DTD SVG 1.1//EN"
 "http://www.w3.org/Graphics/SVG/1.1/DTD/svg11.dtd">
<!-- Generated by graphviz version 2.43.0 (0)
 -->
<!-- Title: finite_state_machine Pages: 1 -->
<svg width="290pt" height="154pt"
 viewBox="0.00 0.00 290.00 154.00" xmlns="http://www.w3.org/2000/svg" xmlns:xlink="http://www.w3.org/1999/xlink">
<g id="graph0" class="graph" transform="scale(1 1) rotate(0) translate(4 150)">
<title>finite_state_machine</title>
<polygon fill="white" stroke="transparent" points="-4,4 -4,-150 286,-150 286,4 -4,4"/>
<!-- 1 -->
<g id="node1" class="node">
<title>1</title>
<ellipse fill="none" stroke="black" cx="100" cy="-99" rx="18" ry="18"/>
<text text-anchor="middle" x="100" y="-95.3" font-family="Times,serif" font-size="14.00">1</text>
</g>
<!-- 2 -->
<g id="node2" class="node">
<title>2</title>
<ellipse fill="none" stroke="black" cx="182" cy="-73" rx="18" ry="18"/>
<text text-anchor="middle" x="182" y="-69.3" font-family="Times,serif" font-size="14.00">2</text>
</g>
<!-- 1&#45;&gt;2 -->
<g id="edge1" class="edge">
<title>1&#45;&gt;2</title>
<path fill="none" stroke="black" d="M117.58,-93.61C128.37,-90.1 142.69,-85.45 154.99,-81.45"/>
<polygon fill="black" stroke="black" points="156.29,-84.71 164.72,-78.29 154.13,-78.05 156.29,-84.71"/>
<text text-anchor="middle" x="141" y="-90.8" font-family="Times,serif" font-size="14.00">1</text>
</g>
<!-- 3 -->
<g id="node3" class="node">
<title>3</title>
<ellipse fill="none" stroke="black" cx="182" cy="-128" rx="18" ry="18"/>
<text text-anchor="middle" x="182" y="-124.3" font-family="Times,serif" font-size="14.00">3</text>
</g>
<!-- 1&#45;&gt;3 -->
<g id="edge2" class="edge">
<title>1&#45;&gt;3</title>
<path fill="none" stroke="black" d="M117.19,-104.87C128.14,-108.84 142.84,-114.17 155.37,-118.71"/>
<polygon fill="black" stroke="black" points="154.24,-122.02 164.83,-122.14 156.63,-115.44 154.24,-122.02"/>
<text text-anchor="middle" x="141" y="-118.8" font-family="Times,serif" font-size="14.00">2</text>
</g>
<!-- 6 -->
<g id="node7" class="node">
<title>6</title>
<ellipse fill="none" stroke="black" cx="264" cy="-73" rx="18" ry="18"/>
<text text-anchor="middle" x="264" y="-69.3" font-family="Times,serif" font-size="14.00">6</text>
</g>
<!-- 2&#45;&gt;6 -->
<g id="edge8" class="edge">
<title>2&#45;&gt;6</title>
<path fill="none" stroke="black" d="M200.36,-73C210.7,-73 224.06,-73 235.78,-73"/>
<polygon fill="black" stroke="black" points="235.95,-76.5 245.95,-73 235.95,-69.5 235.95,-76.5"/>
<text text-anchor="middle" x="223" y="-76.8" font-family="Times,serif" font-size="14.00">0</text>
</g>
<!-- 3&#45;&gt;6 -->
<g id="edge9" class="edge">
<title>3&#45;&gt;6</title>
<path fill="none" stroke="black" d="M197.3,-118.17C209.25,-109.95 226.49,-98.1 240.32,-88.59"/>
<polygon fill="black" stroke="black" points="242.56,-91.3 248.82,-82.75 238.6,-85.53 242.56,-91.3"/>
<text text-anchor="middle" x="223" y="-106.8" font-family="Times,serif" font-size="14.00">0</text>
</g>
<!-- 0 -->
<g id="node4" class="node">
<title>0</title>
<ellipse fill="none" stroke="black" cx="18" cy="-72" rx="18" ry="18"/>
<text text-anchor="middle" x="18" y="-68.3" font-family="Times,serif" font-size="14.00">0</text>
</g>
<!-- 0&#45;&gt;1 -->
<g id="edge3" class="edge">
<title>0&#45;&gt;1</title>
<path fill="none" stroke="black" d="M35.19,-77.46C46.03,-81.12 60.55,-86.02 72.99,-90.22"/>
<polygon fill="black" stroke="black" points="72.24,-93.66 82.83,-93.54 74.48,-87.03 72.24,-93.66"/>
<text text-anchor="middle" x="59" y="-90.8" font-family="Times,serif" font-size="14.00">0</text>
</g>
<!-- 4 -->
<g id="node5" class="node">
<title>4</title>
<ellipse fill="none" stroke="black" cx="100" cy="-45" rx="18" ry="18"/>
<text text-anchor="middle" x="100" y="-41.3" font-family="Times,serif" font-size="14.00">4</text>
</g>
<!-- 0&#45;&gt;4 -->
<g id="edge4" class="edge">
<title>0&#45;&gt;4</title>
<path fill="none" stroke="black" d="M35.19,-66.54C46.03,-62.88 60.55,-57.98 72.99,-53.78"/>
<polygon fill="black" stroke="black" points="74.48,-56.97 82.83,-50.46 72.24,-50.34 74.48,-56.97"/>
<text text-anchor="middle" x="59" y="-63.8" font-family="Times,serif" font-size="14.00">0</text>
</g>
<!-- 4&#45;&gt;2 -->
<g id="edge6" class="edge">
<title>4&#45;&gt;2</title>
<path fill="none" stroke="black" d="M117.19,-50.67C128.14,-54.5 142.84,-59.64 155.37,-64.03"/>
<polygon fill="black" stroke="black" points="154.24,-67.34 164.83,-67.34 156.55,-60.74 154.24,-67.34"/>
<text text-anchor="middle" x="141" y="-63.8" font-family="Times,serif" font-size="14.00">2</text>
</g>
<!-- 5 -->
<g id="node6" class="node">
<title>5</title>
<ellipse fill="none" stroke="black" cx="182" cy="-18" rx="18" ry="18"/>
<text text-anchor="middle" x="182" y="-14.3" font-family="Times,serif" font-size="14.00">5</text>
</g>
<!-- 4&#45;&gt;5 -->
<g id="edge5" class="edge">
<title>4&#45;&gt;5</title>
<path fill="none" stroke="black" d="M112.6,-31.86C118.84,-25.78 127.09,-19.21 136,-16 141.61,-13.98 147.87,-13.34 153.9,-13.44"/>
<polygon fill="black" stroke="black" points="154.05,-16.96 164.3,-14.27 154.61,-9.98 154.05,-16.96"/>
<text text-anchor="middle" x="141" y="-19.8" font-family="Times,serif" font-size="14.00">1</text>
</g>
<!-- 5&#45;&gt;6 -->
<g id="edge7" class="edge">
<title>5&#45;&gt;6</title>
<path fill="none" stroke="black" d="M197.3,-27.83C209.25,-36.05 226.49,-47.9 240.32,-57.41"/>
<polygon fill="black" stroke="black" points="238.6,-60.47 248.82,-63.25 242.56,-54.7 238.6,-60.47"/>
<text text-anchor="middle" x="223" y="-52.8" font-family="Times,serif" font-size="14.00">0</text>
</g>
</g>
</svg>
