<?xml version="1.0" encoding="UTF-8" standalone="no"?>
<!DOCTYPE svg PUBLIC "-//W3C//DTD SVG 1.1//EN"
 "http://www.w3.org/Graphics/SVG/1.1/DTD/svg11.dtd">
<!-- Generated by graphviz version 2.43.0 (0)
 -->
<!-- Title: finite_state_machine Pages: 1 -->
<svg width="294pt" height="154pt"
 viewBox="0.00 0.00 294.00 154.00" xmlns="http://www.w3.org/2000/svg" xmlns:xlink="http://www.w3.org/1999/xlink">
<g id="graph0" class="graph" transform="scale(1 1) rotate(0) translate(4 150)">
<title>finite_state_machine</title>
<polygon fill="white" stroke="transparent" points="-4,4 -4,-150 290,-150 290,4 -4,4"/>
<!-- 1 -->
<g id="node1" class="node">
<title>1</title>
<ellipse fill="none" stroke="black" cx="100" cy="-99" rx="18" ry="18"/>
<text text-anchor="middle" x="100" y="-95.3" font-family="Times,serif" font-size="14.00">1</text>
</g>
<!-- 2 -->
<g id="node2" class="node">
<title>2</title>
<ellipse fill="none" stroke="black" cx="186" cy="-73" rx="18" ry="18"/>
<text text-anchor="middle" x="186" y="-69.3" font-family="Times,serif" font-size="14.00">2</text>
</g>
<!-- 1&#45;&gt;2 -->
<g id="edge1" class="edge">
<title>1&#45;&gt;2</title>
<path fill="none" stroke="black" d="M117.6,-93.86C129.33,-90.23 145.3,-85.29 158.76,-81.12"/>
<polygon fill="black" stroke="black" points="159.92,-84.43 168.44,-78.13 157.85,-77.74 159.92,-84.43"/>
<text text-anchor="middle" x="143" y="-90.8" font-family="Times,serif" font-size="14.00">&#45;1</text>
</g>
<!-- 3 -->
<g id="node3" class="node">
<title>3</title>
<ellipse fill="none" stroke="black" cx="186" cy="-128" rx="18" ry="18"/>
<text text-anchor="middle" x="186" y="-124.3" font-family="Times,serif" font-size="14.00">3</text>
</g>
<!-- 1&#45;&gt;3 -->
<g id="edge2" class="edge">
<title>1&#45;&gt;3</title>
<path fill="none" stroke="black" d="M117.2,-104.59C129.05,-108.68 145.38,-114.32 159.04,-119.04"/>
<polygon fill="black" stroke="black" points="158.26,-122.47 168.85,-122.43 160.54,-115.85 158.26,-122.47"/>
<text text-anchor="middle" x="143" y="-118.8" font-family="Times,serif" font-size="14.00">&#45;2</text>
</g>
<!-- 6 -->
<g id="node7" class="node">
<title>6</title>
<ellipse fill="none" stroke="black" cx="268" cy="-73" rx="18" ry="18"/>
<text text-anchor="middle" x="268" y="-69.3" font-family="Times,serif" font-size="14.00">6</text>
</g>
<!-- 2&#45;&gt;6 -->
<g id="edge8" class="edge">
<title>2&#45;&gt;6</title>
<path fill="none" stroke="black" d="M204.36,-73C214.7,-73 228.06,-73 239.78,-73"/>
<polygon fill="black" stroke="black" points="239.95,-76.5 249.95,-73 239.95,-69.5 239.95,-76.5"/>
<text text-anchor="middle" x="227" y="-76.8" font-family="Times,serif" font-size="14.00">0</text>
</g>
<!-- 3&#45;&gt;6 -->
<g id="edge9" class="edge">
<title>3&#45;&gt;6</title>
<path fill="none" stroke="black" d="M201.3,-118.17C213.25,-109.95 230.49,-98.1 244.32,-88.59"/>
<polygon fill="black" stroke="black" points="246.56,-91.3 252.82,-82.75 242.6,-85.53 246.56,-91.3"/>
<text text-anchor="middle" x="227" y="-106.8" font-family="Times,serif" font-size="14.00">0</text>
</g>
<!-- 0 -->
<g id="node4" class="node">
<title>0</title>
<ellipse fill="none" stroke="black" cx="18" cy="-72" rx="18" ry="18"/>
<text text-anchor="middle" x="18" y="-68.3" font-family="Times,serif" font-size="14.00">0</text>
</g>
<!-- 0&#45;&gt;1 -->
<g id="edge3" class="edge">
<title>0&#45;&gt;1</title>
<path fill="none" stroke="black" d="M35.19,-77.46C46.03,-81.12 60.55,-86.02 72.99,-90.22"/>
<polygon fill="black" stroke="black" points="72.24,-93.66 82.83,-93.54 74.48,-87.03 72.24,-93.66"/>
<text text-anchor="middle" x="59" y="-90.8" font-family="Times,serif" font-size="14.00">0</text>
</g>
<!-- 4 -->
<g id="node5" class="node">
<title>4</title>
<ellipse fill="none" stroke="black" cx="100" cy="-45" rx="18" ry="18"/>
<text text-anchor="middle" x="100" y="-41.3" font-family="Times,serif" font-size="14.00">4</text>
</g>
<!-- 0&#45;&gt;4 -->
<g id="edge4" class="edge">
<title>0&#45;&gt;4</title>
<path fill="none" stroke="black" d="M35.19,-66.54C46.03,-62.88 60.55,-57.98 72.99,-53.78"/>
<polygon fill="black" stroke="black" points="74.48,-56.97 82.83,-50.46 72.24,-50.34 74.48,-56.97"/>
<text text-anchor="middle" x="59" y="-63.8" font-family="Times,serif" font-size="14.00">0</text>
</g>
<!-- 4&#45;&gt;2 -->
<g id="edge6" class="edge">
<title>4&#45;&gt;2</title>
<path fill="none" stroke="black" d="M117.2,-50.4C128.97,-54.32 145.17,-59.72 158.78,-64.26"/>
<polygon fill="black" stroke="black" points="157.97,-67.68 168.57,-67.52 160.19,-61.04 157.97,-67.68"/>
<text text-anchor="middle" x="143" y="-63.8" font-family="Times,serif" font-size="14.00">&#45;2</text>
</g>
<!-- 5 -->
<g id="node6" class="node">
<title>5</title>
<ellipse fill="none" stroke="black" cx="186" cy="-18" rx="18" ry="18"/>
<text text-anchor="middle" x="186" y="-14.3" font-family="Times,serif" font-size="14.00">5</text>
</g>
<!-- 4&#45;&gt;5 -->
<g id="edge5" class="edge">
<title>4&#45;&gt;5</title>
<path fill="none" stroke="black" d="M112.6,-31.86C118.84,-25.78 127.09,-19.21 136,-16 142.89,-13.52 150.68,-12.93 157.99,-13.24"/>
<polygon fill="black" stroke="black" points="157.9,-16.75 168.19,-14.23 158.57,-9.78 157.9,-16.75"/>
<text text-anchor="middle" x="143" y="-19.8" font-family="Times,serif" font-size="14.00">&#45;1</text>
</g>
<!-- 5&#45;&gt;6 -->
<g id="edge7" class="edge">
<title>5&#45;&gt;6</title>
<path fill="none" stroke="black" d="M201.3,-27.83C213.25,-36.05 230.49,-47.9 244.32,-57.41"/>
<polygon fill="black" stroke="black" points="242.6,-60.47 252.82,-63.25 246.56,-54.7 242.6,-60.47"/>
<text text-anchor="middle" x="227" y="-52.8" font-family="Times,serif" font-size="14.00">0</text>
</g>
</g>
</svg>
