<?xml version="1.0" encoding="UTF-8" standalone="no"?>
<!DOCTYPE svg PUBLIC "-//W3C//DTD SVG 1.1//EN"
 "http://www.w3.org/Graphics/SVG/1.1/DTD/svg11.dtd">
<!-- Generated by graphviz version 2.43.0 (0)
 -->
<!-- Title: finite_state_machine Pages: 1 -->
<svg width="269pt" height="436pt"
 viewBox="0.00 0.00 269.18 436.14" xmlns="http://www.w3.org/2000/svg" xmlns:xlink="http://www.w3.org/1999/xlink">
<g id="graph0" class="graph" transform="scale(1 1) rotate(0) translate(4 432.14)">
<title>finite_state_machine</title>
<polygon fill="white" stroke="transparent" points="-4,4 -4,-432.14 265.18,-432.14 265.18,4 -4,4"/>
<!-- Yacine -->
<g id="node1" class="node">
<title>Yacine</title>
<ellipse fill="none" stroke="black" cx="42.25" cy="-40.3" rx="40.09" ry="40.09"/>
<text text-anchor="middle" x="42.25" y="-36.6" font-family="Times,serif" font-size="14.00">Yacine</text>
</g>
<!-- HR -->
<g id="node2" class="node">
<title>HR</title>
<ellipse fill="none" stroke="black" cx="203.34" cy="-40.3" rx="25.2" ry="25.2"/>
<text text-anchor="middle" x="203.34" y="-36.6" font-family="Times,serif" font-size="14.00">HR</text>
</g>
<!-- Yacine&#45;&gt;HR -->
<g id="edge1" class="edge">
<title>Yacine&#45;&gt;HR</title>
<path fill="none" stroke="black" d="M82.57,-40.3C108.66,-40.3 142.58,-40.3 167.65,-40.3"/>
<polygon fill="black" stroke="black" points="167.81,-43.8 177.81,-40.3 167.81,-36.8 167.81,-43.8"/>
<text text-anchor="middle" x="114.99" y="-44.1" font-family="Times,serif" font-size="14.00">has</text>
</g>
<!-- Mateo -->
<g id="node3" class="node">
<title>Mateo</title>
<ellipse fill="none" stroke="black" cx="42.25" cy="-139.3" rx="40.09" ry="40.09"/>
<text text-anchor="middle" x="42.25" y="-135.6" font-family="Times,serif" font-size="14.00">Mateo</text>
</g>
<!-- SWE -->
<g id="node4" class="node">
<title>SWE</title>
<ellipse fill="none" stroke="black" cx="203.34" cy="-139.3" rx="33.29" ry="33.29"/>
<text text-anchor="middle" x="203.34" y="-135.6" font-family="Times,serif" font-size="14.00">SWE</text>
</g>
<!-- Mateo&#45;&gt;SWE -->
<g id="edge2" class="edge">
<title>Mateo&#45;&gt;SWE</title>
<path fill="none" stroke="black" d="M82.57,-139.3C106.06,-139.3 135.89,-139.3 159.9,-139.3"/>
<polygon fill="black" stroke="black" points="160.14,-142.8 170.14,-139.3 160.14,-135.8 160.14,-142.8"/>
<text text-anchor="middle" x="114.99" y="-143.1" font-family="Times,serif" font-size="14.00">has</text>
</g>
<!-- Sophie -->
<g id="node5" class="node">
<title>Sophie</title>
<ellipse fill="none" stroke="black" cx="42.25" cy="-242.3" rx="42.49" ry="42.49"/>
<text text-anchor="middle" x="42.25" y="-238.6" font-family="Times,serif" font-size="14.00">Sophie</text>
</g>
<!-- Manager -->
<g id="node6" class="node">
<title>Manager</title>
<ellipse fill="none" stroke="black" cx="203.34" cy="-242.3" rx="51.99" ry="51.99"/>
<text text-anchor="middle" x="203.34" y="-238.6" font-family="Times,serif" font-size="14.00">Manager</text>
</g>
<!-- Sophie&#45;&gt;Manager -->
<g id="edge3" class="edge">
<title>Sophie&#45;&gt;Manager</title>
<path fill="none" stroke="black" d="M84.63,-242.3C101.88,-242.3 122.26,-242.3 141.18,-242.3"/>
<polygon fill="black" stroke="black" points="141.21,-245.8 151.21,-242.3 141.21,-238.8 141.21,-245.8"/>
<text text-anchor="middle" x="114.99" y="-246.1" font-family="Times,serif" font-size="14.00">has</text>
</g>
<!-- Paul -->
<g id="node7" class="node">
<title>Paul</title>
<ellipse fill="none" stroke="black" cx="42.25" cy="-370.3" rx="30.59" ry="30.59"/>
<text text-anchor="middle" x="42.25" y="-366.6" font-family="Times,serif" font-size="14.00">Paul</text>
</g>
<!-- Tech Lead -->
<g id="node8" class="node">
<title>Tech Lead</title>
<ellipse fill="none" stroke="black" cx="203.34" cy="-370.3" rx="57.69" ry="57.69"/>
<text text-anchor="middle" x="203.34" y="-366.6" font-family="Times,serif" font-size="14.00">Tech Lead</text>
</g>
<!-- Paul&#45;&gt;Tech Lead -->
<g id="edge4" class="edge">
<title>Paul&#45;&gt;Tech Lead</title>
<path fill="none" stroke="black" d="M72.8,-370.3C90.33,-370.3 113.31,-370.3 135.04,-370.3"/>
<polygon fill="black" stroke="black" points="135.24,-373.8 145.24,-370.3 135.24,-366.8 135.24,-373.8"/>
<text text-anchor="middle" x="114.99" y="-374.1" font-family="Times,serif" font-size="14.00">has</text>
</g>
</g>
</svg>
