<?xml version="1.0" encoding="UTF-8" standalone="no"?>
<!DOCTYPE svg PUBLIC "-//W3C//DTD SVG 1.1//EN"
 "http://www.w3.org/Graphics/SVG/1.1/DTD/svg11.dtd">
<!-- Generated by graphviz version 2.43.0 (0)
 -->
<!-- Title: finite_state_machine Pages: 1 -->
<svg width="321pt" height="489pt"
 viewBox="0.00 0.00 321.18 489.34" xmlns="http://www.w3.org/2000/svg" xmlns:xlink="http://www.w3.org/1999/xlink">
<g id="graph0" class="graph" transform="scale(1 1) rotate(0) translate(4 485.34)">
<title>finite_state_machine</title>
<polygon fill="white" stroke="transparent" points="-4,4 -4,-485.34 317.18,-485.34 317.18,4 -4,4"/>
<!-- Mason -->
<g id="node1" class="node">
<title>Mason</title>
<ellipse fill="none" stroke="black" cx="54.6" cy="-44.85" rx="41.69" ry="41.69"/>
<text text-anchor="middle" x="54.6" y="-41.15" font-family="Times,serif" font-size="14.00">Mason</text>
</g>
<!-- Runner -->
<g id="node2" class="node">
<title>Runner</title>
<ellipse fill="none" stroke="black" cx="241.68" cy="-44.85" rx="44.69" ry="44.69"/>
<text text-anchor="middle" x="241.68" y="-41.15" font-family="Times,serif" font-size="14.00">Runner</text>
</g>
<!-- Mason&#45;&gt;Runner -->
<g id="edge1" class="edge">
<title>Mason&#45;&gt;Runner</title>
<path fill="none" stroke="black" d="M96.21,-44.85C122.66,-44.85 157.46,-44.85 186.28,-44.85"/>
<polygon fill="black" stroke="black" points="186.6,-48.35 196.6,-44.85 186.6,-41.35 186.6,-48.35"/>
<text text-anchor="middle" x="139.69" y="-48.65" font-family="Times,serif" font-size="14.00">has</text>
</g>
<!-- Charlotte -->
<g id="node3" class="node">
<title>Charlotte</title>
<ellipse fill="none" stroke="black" cx="54.6" cy="-162.85" rx="54.69" ry="54.69"/>
<text text-anchor="middle" x="54.6" y="-159.15" font-family="Times,serif" font-size="14.00">Charlotte</text>
</g>
<!-- Swimmer -->
<g id="node4" class="node">
<title>Swimmer</title>
<ellipse fill="none" stroke="black" cx="241.68" cy="-162.85" rx="55.49" ry="55.49"/>
<text text-anchor="middle" x="241.68" y="-159.15" font-family="Times,serif" font-size="14.00">Swimmer</text>
</g>
<!-- Charlotte&#45;&gt;Swimmer -->
<g id="edge2" class="edge">
<title>Charlotte&#45;&gt;Swimmer</title>
<path fill="none" stroke="black" d="M109.63,-162.85C130.45,-162.85 154.43,-162.85 176.14,-162.85"/>
<polygon fill="black" stroke="black" points="176.26,-166.35 186.26,-162.85 176.26,-159.35 176.26,-166.35"/>
<text text-anchor="middle" x="139.69" y="-166.65" font-family="Times,serif" font-size="14.00">has</text>
</g>
<!-- Ethan -->
<g id="node5" class="node">
<title>Ethan</title>
<ellipse fill="none" stroke="black" cx="54.6" cy="-277.85" rx="38.19" ry="38.19"/>
<text text-anchor="middle" x="54.6" y="-274.15" font-family="Times,serif" font-size="14.00">Ethan</text>
</g>
<!-- Cyclist -->
<g id="node6" class="node">
<title>Cyclist</title>
<ellipse fill="none" stroke="black" cx="241.68" cy="-277.85" rx="42.49" ry="42.49"/>
<text text-anchor="middle" x="241.68" y="-274.15" font-family="Times,serif" font-size="14.00">Cyclist</text>
</g>
<!-- Ethan&#45;&gt;Cyclist -->
<g id="edge3" class="edge">
<title>Ethan&#45;&gt;Cyclist</title>
<path fill="none" stroke="black" d="M93.05,-277.85C120.76,-277.85 158.84,-277.85 189.38,-277.85"/>
<polygon fill="black" stroke="black" points="189.42,-281.35 199.42,-277.85 189.42,-274.35 189.42,-281.35"/>
<text text-anchor="middle" x="139.69" y="-281.65" font-family="Times,serif" font-size="14.00">has</text>
</g>
<!-- Olivia -->
<g id="node7" class="node">
<title>Olivia</title>
<ellipse fill="none" stroke="black" cx="54.6" cy="-409.85" rx="37.89" ry="37.89"/>
<text text-anchor="middle" x="54.6" y="-406.15" font-family="Times,serif" font-size="14.00">Olivia</text>
</g>
<!-- Body Builder -->
<g id="node8" class="node">
<title>Body Builder</title>
<ellipse fill="none" stroke="black" cx="241.68" cy="-409.85" rx="71.49" ry="71.49"/>
<text text-anchor="middle" x="241.68" y="-406.15" font-family="Times,serif" font-size="14.00">Body Builder</text>
</g>
<!-- Olivia&#45;&gt;Body Builder -->
<g id="edge4" class="edge">
<title>Olivia&#45;&gt;Body Builder</title>
<path fill="none" stroke="black" d="M92.61,-409.85C111.9,-409.85 136.31,-409.85 159.72,-409.85"/>
<polygon fill="black" stroke="black" points="160.03,-413.35 170.03,-409.85 160.03,-406.35 160.03,-413.35"/>
<text text-anchor="middle" x="139.69" y="-413.65" font-family="Times,serif" font-size="14.00">has</text>
</g>
</g>
</svg>
