<?xml version="1.0" encoding="UTF-8" standalone="no"?>
<!DOCTYPE svg PUBLIC "-//W3C//DTD SVG 1.1//EN"
 "http://www.w3.org/Graphics/SVG/1.1/DTD/svg11.dtd">
<!-- Generated by graphviz version 2.43.0 (0)
 -->
<!-- Title: finite_state_machine Pages: 1 -->
<svg width="321pt" height="489pt"
 viewBox="0.00 0.00 321.18 489.34" xmlns="http://www.w3.org/2000/svg" xmlns:xlink="http://www.w3.org/1999/xlink">
<g id="graph0" class="graph" transform="scale(1 1) rotate(0) translate(4 485.34)">
<title>finite_state_machine</title>
<polygon fill="white" stroke="transparent" points="-4,4 -4,-485.34 317.18,-485.34 317.18,4 -4,4"/>
<!-- Olivia -->
<g id="node1" class="node">
<title>Olivia</title>
<ellipse fill="none" stroke="black" cx="54.6" cy="-71.49" rx="37.89" ry="37.89"/>
<text text-anchor="middle" x="54.6" y="-67.79" font-family="Times,serif" font-size="14.00">Olivia</text>
</g>
<!-- Body Builder -->
<g id="node2" class="node">
<title>Body Builder</title>
<ellipse fill="none" stroke="black" cx="241.68" cy="-71.49" rx="71.49" ry="71.49"/>
<text text-anchor="middle" x="241.68" y="-67.79" font-family="Times,serif" font-size="14.00">Body Builder</text>
</g>
<!-- Olivia&#45;&gt;Body Builder -->
<g id="edge1" class="edge">
<title>Olivia&#45;&gt;Body Builder</title>
<path fill="none" stroke="black" d="M92.61,-71.49C111.9,-71.49 136.31,-71.49 159.72,-71.49"/>
<polygon fill="black" stroke="black" points="160.03,-74.99 170.03,-71.49 160.03,-67.99 160.03,-74.99"/>
<text text-anchor="middle" x="139.69" y="-75.29" font-family="Times,serif" font-size="14.00">has</text>
</g>
<!-- Ethan -->
<g id="node3" class="node">
<title>Ethan</title>
<ellipse fill="none" stroke="black" cx="54.6" cy="-203.49" rx="38.19" ry="38.19"/>
<text text-anchor="middle" x="54.6" y="-199.79" font-family="Times,serif" font-size="14.00">Ethan</text>
</g>
<!-- Cyclist -->
<g id="node4" class="node">
<title>Cyclist</title>
<ellipse fill="none" stroke="black" cx="241.68" cy="-203.49" rx="42.49" ry="42.49"/>
<text text-anchor="middle" x="241.68" y="-199.79" font-family="Times,serif" font-size="14.00">Cyclist</text>
</g>
<!-- Ethan&#45;&gt;Cyclist -->
<g id="edge2" class="edge">
<title>Ethan&#45;&gt;Cyclist</title>
<path fill="none" stroke="black" d="M93.05,-203.49C120.76,-203.49 158.84,-203.49 189.38,-203.49"/>
<polygon fill="black" stroke="black" points="189.42,-206.99 199.42,-203.49 189.42,-199.99 189.42,-206.99"/>
<text text-anchor="middle" x="139.69" y="-207.29" font-family="Times,serif" font-size="14.00">has</text>
</g>
<!-- Charlotte -->
<g id="node5" class="node">
<title>Charlotte</title>
<ellipse fill="none" stroke="black" cx="54.6" cy="-318.49" rx="54.69" ry="54.69"/>
<text text-anchor="middle" x="54.6" y="-314.79" font-family="Times,serif" font-size="14.00">Charlotte</text>
</g>
<!-- Swimmer -->
<g id="node6" class="node">
<title>Swimmer</title>
<ellipse fill="none" stroke="black" cx="241.68" cy="-318.49" rx="55.49" ry="55.49"/>
<text text-anchor="middle" x="241.68" y="-314.79" font-family="Times,serif" font-size="14.00">Swimmer</text>
</g>
<!-- Charlotte&#45;&gt;Swimmer -->
<g id="edge3" class="edge">
<title>Charlotte&#45;&gt;Swimmer</title>
<path fill="none" stroke="black" d="M109.63,-318.49C130.45,-318.49 154.43,-318.49 176.14,-318.49"/>
<polygon fill="black" stroke="black" points="176.26,-321.99 186.26,-318.49 176.26,-314.99 176.26,-321.99"/>
<text text-anchor="middle" x="139.69" y="-322.29" font-family="Times,serif" font-size="14.00">has</text>
</g>
<!-- Mason -->
<g id="node7" class="node">
<title>Mason</title>
<ellipse fill="none" stroke="black" cx="54.6" cy="-436.49" rx="41.69" ry="41.69"/>
<text text-anchor="middle" x="54.6" y="-432.79" font-family="Times,serif" font-size="14.00">Mason</text>
</g>
<!-- Runner -->
<g id="node8" class="node">
<title>Runner</title>
<ellipse fill="none" stroke="black" cx="241.68" cy="-436.49" rx="44.69" ry="44.69"/>
<text text-anchor="middle" x="241.68" y="-432.79" font-family="Times,serif" font-size="14.00">Runner</text>
</g>
<!-- Mason&#45;&gt;Runner -->
<g id="edge4" class="edge">
<title>Mason&#45;&gt;Runner</title>
<path fill="none" stroke="black" d="M96.21,-436.49C122.66,-436.49 157.46,-436.49 186.28,-436.49"/>
<polygon fill="black" stroke="black" points="186.6,-439.99 196.6,-436.49 186.6,-432.99 186.6,-439.99"/>
<text text-anchor="middle" x="139.69" y="-440.29" font-family="Times,serif" font-size="14.00">has</text>
</g>
</g>
</svg>
