<?xml version="1.0" encoding="UTF-8" standalone="no"?>
<!DOCTYPE svg PUBLIC "-//W3C//DTD SVG 1.1//EN"
 "http://www.w3.org/Graphics/SVG/1.1/DTD/svg11.dtd">
<!-- Generated by graphviz version 2.43.0 (0)
 -->
<!-- Title: finite_state_machine Pages: 1 -->
<svg width="264pt" height="351pt"
 viewBox="0.00 0.00 263.98 351.09" xmlns="http://www.w3.org/2000/svg" xmlns:xlink="http://www.w3.org/1999/xlink">
<g id="graph0" class="graph" transform="scale(1 1) rotate(0) translate(4 347.09)">
<title>finite_state_machine</title>
<polygon fill="white" stroke="transparent" points="-4,4 -4,-347.09 259.98,-347.09 259.98,4 -4,4"/>
<!-- Charlie -->
<g id="node1" class="node">
<title>Charlie</title>
<ellipse fill="none" stroke="black" cx="44.2" cy="-52.65" rx="44.39" ry="44.39"/>
<text text-anchor="middle" x="44.2" y="-48.95" font-family="Times,serif" font-size="14.00">Charlie</text>
</g>
<!-- Designer -->
<g id="node2" class="node">
<title>Designer</title>
<ellipse fill="none" stroke="black" cx="202.69" cy="-52.65" rx="52.79" ry="52.79"/>
<text text-anchor="middle" x="202.69" y="-48.95" font-family="Times,serif" font-size="14.00">Designer</text>
</g>
<!-- Charlie&#45;&gt;Designer -->
<g id="edge1" class="edge">
<title>Charlie&#45;&gt;Designer</title>
<path fill="none" stroke="black" d="M88.79,-52.65C104.52,-52.65 122.58,-52.65 139.59,-52.65"/>
<polygon fill="black" stroke="black" points="140.01,-56.15 150.01,-52.65 140.01,-49.15 140.01,-56.15"/>
<text text-anchor="middle" x="118.89" y="-56.45" font-family="Times,serif" font-size="14.00">has</text>
</g>
<!-- Bob -->
<g id="node3" class="node">
<title>Bob</title>
<ellipse fill="none" stroke="black" cx="44.2" cy="-176.65" rx="28.7" ry="28.7"/>
<text text-anchor="middle" x="44.2" y="-172.95" font-family="Times,serif" font-size="14.00">Bob</text>
</g>
<!-- Engineer -->
<g id="node4" class="node">
<title>Engineer</title>
<ellipse fill="none" stroke="black" cx="202.69" cy="-176.65" rx="53.09" ry="53.09"/>
<text text-anchor="middle" x="202.69" y="-172.95" font-family="Times,serif" font-size="14.00">Engineer</text>
</g>
<!-- Bob&#45;&gt;Engineer -->
<g id="edge2" class="edge">
<title>Bob&#45;&gt;Engineer</title>
<path fill="none" stroke="black" d="M72.81,-176.65C91.23,-176.65 116.22,-176.65 139.28,-176.65"/>
<polygon fill="black" stroke="black" points="139.37,-180.15 149.37,-176.65 139.37,-173.15 139.37,-180.15"/>
<text text-anchor="middle" x="118.89" y="-180.45" font-family="Times,serif" font-size="14.00">has</text>
</g>
<!-- Alice -->
<g id="node5" class="node">
<title>Alice</title>
<ellipse fill="none" stroke="black" cx="44.2" cy="-295.65" rx="33.29" ry="33.29"/>
<text text-anchor="middle" x="44.2" y="-291.95" font-family="Times,serif" font-size="14.00">Alice</text>
</g>
<!-- Teacher -->
<g id="node6" class="node">
<title>Teacher</title>
<ellipse fill="none" stroke="black" cx="202.69" cy="-295.65" rx="47.39" ry="47.39"/>
<text text-anchor="middle" x="202.69" y="-291.95" font-family="Times,serif" font-size="14.00">Teacher</text>
</g>
<!-- Alice&#45;&gt;Teacher -->
<g id="edge3" class="edge">
<title>Alice&#45;&gt;Teacher</title>
<path fill="none" stroke="black" d="M77.62,-295.65C97.03,-295.65 122.25,-295.65 144.87,-295.65"/>
<polygon fill="black" stroke="black" points="145.06,-299.15 155.06,-295.65 145.06,-292.15 145.06,-299.15"/>
<text text-anchor="middle" x="118.89" y="-299.45" font-family="Times,serif" font-size="14.00">has</text>
</g>
</g>
</svg>
