<?xml version="1.0" encoding="UTF-8" standalone="no"?>
<!DOCTYPE svg PUBLIC "-//W3C//DTD SVG 1.1//EN"
 "http://www.w3.org/Graphics/SVG/1.1/DTD/svg11.dtd">
<!-- Generated by graphviz version 2.43.0 (0)
 -->
<!-- Title: finite_state_machine Pages: 1 -->
<svg width="264pt" height="351pt"
 viewBox="0.00 0.00 263.98 351.09" xmlns="http://www.w3.org/2000/svg" xmlns:xlink="http://www.w3.org/1999/xlink">
<g id="graph0" class="graph" transform="scale(1 1) rotate(0) translate(4 347.09)">
<title>finite_state_machine</title>
<polygon fill="white" stroke="transparent" points="-4,4 -4,-347.09 259.98,-347.09 259.98,4 -4,4"/>
<!-- Alice -->
<g id="node1" class="node">
<title>Alice</title>
<ellipse fill="none" stroke="black" cx="44.2" cy="-47.45" rx="33.29" ry="33.29"/>
<text text-anchor="middle" x="44.2" y="-43.75" font-family="Times,serif" font-size="14.00">Alice</text>
</g>
<!-- Teacher -->
<g id="node2" class="node">
<title>Teacher</title>
<ellipse fill="none" stroke="black" cx="202.69" cy="-47.45" rx="47.39" ry="47.39"/>
<text text-anchor="middle" x="202.69" y="-43.75" font-family="Times,serif" font-size="14.00">Teacher</text>
</g>
<!-- Alice&#45;&gt;Teacher -->
<g id="edge1" class="edge">
<title>Alice&#45;&gt;Teacher</title>
<path fill="none" stroke="black" d="M77.62,-47.45C97.03,-47.45 122.25,-47.45 144.87,-47.45"/>
<polygon fill="black" stroke="black" points="145.06,-50.95 155.06,-47.45 145.06,-43.95 145.06,-50.95"/>
<text text-anchor="middle" x="118.89" y="-51.25" font-family="Times,serif" font-size="14.00">has</text>
</g>
<!-- Bob -->
<g id="node3" class="node">
<title>Bob</title>
<ellipse fill="none" stroke="black" cx="44.2" cy="-166.45" rx="28.7" ry="28.7"/>
<text text-anchor="middle" x="44.2" y="-162.75" font-family="Times,serif" font-size="14.00">Bob</text>
</g>
<!-- Engineer -->
<g id="node4" class="node">
<title>Engineer</title>
<ellipse fill="none" stroke="black" cx="202.69" cy="-166.45" rx="53.09" ry="53.09"/>
<text text-anchor="middle" x="202.69" y="-162.75" font-family="Times,serif" font-size="14.00">Engineer</text>
</g>
<!-- Bob&#45;&gt;Engineer -->
<g id="edge2" class="edge">
<title>Bob&#45;&gt;Engineer</title>
<path fill="none" stroke="black" d="M72.81,-166.45C91.23,-166.45 116.22,-166.45 139.28,-166.45"/>
<polygon fill="black" stroke="black" points="139.37,-169.95 149.37,-166.45 139.37,-162.95 139.37,-169.95"/>
<text text-anchor="middle" x="118.89" y="-170.25" font-family="Times,serif" font-size="14.00">has</text>
</g>
<!-- Charlie -->
<g id="node5" class="node">
<title>Charlie</title>
<ellipse fill="none" stroke="black" cx="44.2" cy="-290.45" rx="44.39" ry="44.39"/>
<text text-anchor="middle" x="44.2" y="-286.75" font-family="Times,serif" font-size="14.00">Charlie</text>
</g>
<!-- Designer -->
<g id="node6" class="node">
<title>Designer</title>
<ellipse fill="none" stroke="black" cx="202.69" cy="-290.45" rx="52.79" ry="52.79"/>
<text text-anchor="middle" x="202.69" y="-286.75" font-family="Times,serif" font-size="14.00">Designer</text>
</g>
<!-- Charlie&#45;&gt;Designer -->
<g id="edge3" class="edge">
<title>Charlie&#45;&gt;Designer</title>
<path fill="none" stroke="black" d="M88.79,-290.45C104.52,-290.45 122.58,-290.45 139.59,-290.45"/>
<polygon fill="black" stroke="black" points="140.01,-293.95 150.01,-290.45 140.01,-286.95 140.01,-293.95"/>
<text text-anchor="middle" x="118.89" y="-294.25" font-family="Times,serif" font-size="14.00">has</text>
</g>
</g>
</svg>
