<?xml version="1.0" encoding="UTF-8" standalone="no"?>
<!DOCTYPE svg PUBLIC "-//W3C//DTD SVG 1.1//EN"
 "http://www.w3.org/Graphics/SVG/1.1/DTD/svg11.dtd">
<!-- Generated by graphviz version 2.43.0 (0)
 -->
<!-- Title: finite_state_machine Pages: 1 -->
<svg width="256pt" height="580pt"
 viewBox="0.00 0.00 256.18 580.49" xmlns="http://www.w3.org/2000/svg" xmlns:xlink="http://www.w3.org/1999/xlink">
<g id="graph0" class="graph" transform="scale(1 1) rotate(0) translate(4 576.49)">
<title>finite_state_machine</title>
<polygon fill="white" stroke="transparent" points="-4,4 -4,-576.49 252.18,-576.49 252.18,4 -4,4"/>
<!-- Anna -->
<g id="node1" class="node">
<title>Anna</title>
<ellipse fill="none" stroke="black" cx="38.35" cy="-42.25" rx="34.39" ry="34.39"/>
<text text-anchor="middle" x="38.35" y="-38.55" font-family="Times,serif" font-size="14.00">Anna</text>
</g>
<!-- Doctor -->
<g id="node2" class="node">
<title>Doctor</title>
<ellipse fill="none" stroke="black" cx="192.94" cy="-42.25" rx="42.49" ry="42.49"/>
<text text-anchor="middle" x="192.94" y="-38.55" font-family="Times,serif" font-size="14.00">Doctor</text>
</g>
<!-- Anna&#45;&gt;Doctor -->
<g id="edge1" class="edge">
<title>Anna&#45;&gt;Doctor</title>
<path fill="none" stroke="black" d="M72.83,-42.25C92.69,-42.25 118.27,-42.25 140.62,-42.25"/>
<polygon fill="black" stroke="black" points="140.64,-45.75 150.64,-42.25 140.64,-38.75 140.64,-45.75"/>
<text text-anchor="middle" x="107.19" y="-46.05" font-family="Times,serif" font-size="14.00">has</text>
</g>
<!-- Ella -->
<g id="node3" class="node">
<title>Ella</title>
<ellipse fill="none" stroke="black" cx="38.35" cy="-156.25" rx="28.7" ry="28.7"/>
<text text-anchor="middle" x="38.35" y="-152.55" font-family="Times,serif" font-size="14.00">Ella</text>
</g>
<!-- Engineer -->
<g id="node4" class="node">
<title>Engineer</title>
<ellipse fill="none" stroke="black" cx="192.94" cy="-156.25" rx="53.09" ry="53.09"/>
<text text-anchor="middle" x="192.94" y="-152.55" font-family="Times,serif" font-size="14.00">Engineer</text>
</g>
<!-- Ella&#45;&gt;Engineer -->
<g id="edge2" class="edge">
<title>Ella&#45;&gt;Engineer</title>
<path fill="none" stroke="black" d="M66.98,-156.25C84.4,-156.25 107.64,-156.25 129.34,-156.25"/>
<polygon fill="black" stroke="black" points="129.51,-159.75 139.51,-156.25 129.51,-152.75 129.51,-159.75"/>
<text text-anchor="middle" x="107.19" y="-160.05" font-family="Times,serif" font-size="14.00">has</text>
</g>
<!-- Jack -->
<g id="node5" class="node">
<title>Jack</title>
<ellipse fill="none" stroke="black" cx="38.35" cy="-279.25" rx="29.8" ry="29.8"/>
<text text-anchor="middle" x="38.35" y="-275.55" font-family="Times,serif" font-size="14.00">Jack</text>
</g>
<!-- Scientist -->
<g id="node6" class="node">
<title>Scientist</title>
<ellipse fill="none" stroke="black" cx="192.94" cy="-279.25" rx="51.99" ry="51.99"/>
<text text-anchor="middle" x="192.94" y="-275.55" font-family="Times,serif" font-size="14.00">Scientist</text>
</g>
<!-- Jack&#45;&gt;Scientist -->
<g id="edge3" class="edge">
<title>Jack&#45;&gt;Scientist</title>
<path fill="none" stroke="black" d="M68.41,-279.25C86.02,-279.25 109.18,-279.25 130.68,-279.25"/>
<polygon fill="black" stroke="black" points="130.74,-282.75 140.74,-279.25 130.74,-275.75 130.74,-282.75"/>
<text text-anchor="middle" x="107.19" y="-283.05" font-family="Times,serif" font-size="14.00">has</text>
</g>
<!-- Mia -->
<g id="node7" class="node">
<title>Mia</title>
<ellipse fill="none" stroke="black" cx="38.35" cy="-396.25" rx="28.7" ry="28.7"/>
<text text-anchor="middle" x="38.35" y="-392.55" font-family="Times,serif" font-size="14.00">Mia</text>
</g>
<!-- Teacher -->
<g id="node8" class="node">
<title>Teacher</title>
<ellipse fill="none" stroke="black" cx="192.94" cy="-396.25" rx="47.39" ry="47.39"/>
<text text-anchor="middle" x="192.94" y="-392.55" font-family="Times,serif" font-size="14.00">Teacher</text>
</g>
<!-- Mia&#45;&gt;Teacher -->
<g id="edge4" class="edge">
<title>Mia&#45;&gt;Teacher</title>
<path fill="none" stroke="black" d="M66.98,-396.25C85.98,-396.25 111.9,-396.25 135.2,-396.25"/>
<polygon fill="black" stroke="black" points="135.34,-399.75 145.34,-396.25 135.34,-392.75 135.34,-399.75"/>
<text text-anchor="middle" x="107.19" y="-400.05" font-family="Times,serif" font-size="14.00">has</text>
</g>
<!-- James -->
<g id="node9" class="node">
<title>James</title>
<ellipse fill="none" stroke="black" cx="38.35" cy="-517.25" rx="38.19" ry="38.19"/>
<text text-anchor="middle" x="38.35" y="-513.55" font-family="Times,serif" font-size="14.00">James</text>
</g>
<!-- Detective -->
<g id="node10" class="node">
<title>Detective</title>
<ellipse fill="none" stroke="black" cx="192.94" cy="-517.25" rx="55.49" ry="55.49"/>
<text text-anchor="middle" x="192.94" y="-513.55" font-family="Times,serif" font-size="14.00">Detective</text>
</g>
<!-- James&#45;&gt;Detective -->
<g id="edge5" class="edge">
<title>James&#45;&gt;Detective</title>
<path fill="none" stroke="black" d="M77.07,-517.25C92.34,-517.25 110.41,-517.25 127.64,-517.25"/>
<polygon fill="black" stroke="black" points="127.66,-520.75 137.66,-517.25 127.66,-513.75 127.66,-520.75"/>
<text text-anchor="middle" x="107.19" y="-521.05" font-family="Times,serif" font-size="14.00">has</text>
</g>
</g>
</svg>
