<?xml version="1.0" encoding="UTF-8" standalone="no"?>
<!DOCTYPE svg PUBLIC "-//W3C//DTD SVG 1.1//EN"
 "http://www.w3.org/Graphics/SVG/1.1/DTD/svg11.dtd">
<!-- Generated by graphviz version 2.43.0 (0)
 -->
<!-- Title: finite_state_machine Pages: 1 -->
<svg width="265pt" height="210pt"
 viewBox="0.00 0.00 265.28 210.14" xmlns="http://www.w3.org/2000/svg" xmlns:xlink="http://www.w3.org/1999/xlink">
<g id="graph0" class="graph" transform="scale(1 1) rotate(0) translate(4 206.14)">
<title>finite_state_machine</title>
<polygon fill="white" stroke="transparent" points="-4,4 -4,-206.14 261.28,-206.14 261.28,4 -4,4"/>
<!-- Mateo -->
<g id="node1" class="node">
<title>Mateo</title>
<ellipse fill="none" stroke="black" cx="40.3" cy="-57.84" rx="40.09" ry="40.09"/>
<text text-anchor="middle" x="40.3" y="-54.14" font-family="Times,serif" font-size="14.00">Mateo</text>
</g>
<!-- Tech Lead -->
<g id="node2" class="node">
<title>Tech Lead</title>
<ellipse fill="none" stroke="black" cx="199.44" cy="-57.84" rx="57.69" ry="57.69"/>
<text text-anchor="middle" x="199.44" y="-54.14" font-family="Times,serif" font-size="14.00">Tech Lead</text>
</g>
<!-- Mateo&#45;&gt;Tech Lead -->
<g id="edge1" class="edge">
<title>Mateo&#45;&gt;Tech Lead</title>
<path fill="none" stroke="black" d="M80.95,-57.84C96.3,-57.84 114.31,-57.84 131.55,-57.84"/>
<polygon fill="black" stroke="black" points="131.58,-61.34 141.58,-57.84 131.58,-54.34 131.58,-61.34"/>
<text text-anchor="middle" x="111.09" y="-61.64" font-family="Times,serif" font-size="14.00">has</text>
</g>
<!-- Yacine -->
<g id="node3" class="node">
<title>Yacine</title>
<ellipse fill="none" stroke="black" cx="40.3" cy="-161.84" rx="40.09" ry="40.09"/>
<text text-anchor="middle" x="40.3" y="-158.14" font-family="Times,serif" font-size="14.00">Yacine</text>
</g>
<!-- Dev -->
<g id="node4" class="node">
<title>Dev</title>
<ellipse fill="none" stroke="black" cx="199.44" cy="-161.84" rx="28.7" ry="28.7"/>
<text text-anchor="middle" x="199.44" y="-158.14" font-family="Times,serif" font-size="14.00">Dev</text>
</g>
<!-- Yacine&#45;&gt;Dev -->
<g id="edge2" class="edge">
<title>Yacine&#45;&gt;Dev</title>
<path fill="none" stroke="black" d="M80.95,-161.84C105.34,-161.84 136.43,-161.84 160.5,-161.84"/>
<polygon fill="black" stroke="black" points="160.68,-165.34 170.68,-161.84 160.68,-158.34 160.68,-165.34"/>
<text text-anchor="middle" x="111.09" y="-165.64" font-family="Times,serif" font-size="14.00">has</text>
</g>
</g>
</svg>
