<?xml version="1.0" encoding="UTF-8" standalone="no"?>
<!DOCTYPE svg PUBLIC "-//W3C//DTD SVG 1.1//EN"
 "http://www.w3.org/Graphics/SVG/1.1/DTD/svg11.dtd">
<!-- Generated by graphviz version 2.43.0 (0)
 -->
<!-- Title: finite_state_machine Pages: 1 -->
<svg width="252pt" height="339pt"
 viewBox="0.00 0.00 252.28 338.54" xmlns="http://www.w3.org/2000/svg" xmlns:xlink="http://www.w3.org/1999/xlink">
<g id="graph0" class="graph" transform="scale(1 1) rotate(0) translate(4 334.54)">
<title>finite_state_machine</title>
<polygon fill="white" stroke="transparent" points="-4,4 -4,-334.54 248.28,-334.54 248.28,4 -4,4"/>
<!-- James -->
<g id="node1" class="node">
<title>James</title>
<ellipse fill="none" stroke="black" cx="38.35" cy="-42.25" rx="38.19" ry="38.19"/>
<text text-anchor="middle" x="38.35" y="-38.55" font-family="Times,serif" font-size="14.00">James</text>
</g>
<!-- Doctor -->
<g id="node2" class="node">
<title>Doctor</title>
<ellipse fill="none" stroke="black" cx="190.99" cy="-42.25" rx="42.49" ry="42.49"/>
<text text-anchor="middle" x="190.99" y="-38.55" font-family="Times,serif" font-size="14.00">Doctor</text>
</g>
<!-- James&#45;&gt;Doctor -->
<g id="edge1" class="edge">
<title>James&#45;&gt;Doctor</title>
<path fill="none" stroke="black" d="M76.97,-42.25C95.52,-42.25 118.19,-42.25 138.34,-42.25"/>
<polygon fill="black" stroke="black" points="138.61,-45.75 148.61,-42.25 138.61,-38.75 138.61,-45.75"/>
<text text-anchor="middle" x="107.19" y="-46.05" font-family="Times,serif" font-size="14.00">has</text>
</g>
<!-- Mia -->
<g id="node3" class="node">
<title>Mia</title>
<ellipse fill="none" stroke="black" cx="38.35" cy="-154.25" rx="28.7" ry="28.7"/>
<text text-anchor="middle" x="38.35" y="-150.55" font-family="Times,serif" font-size="14.00">Mia</text>
</g>
<!-- Scientist -->
<g id="node4" class="node">
<title>Scientist</title>
<ellipse fill="none" stroke="black" cx="190.99" cy="-154.25" rx="51.99" ry="51.99"/>
<text text-anchor="middle" x="190.99" y="-150.55" font-family="Times,serif" font-size="14.00">Scientist</text>
</g>
<!-- Mia&#45;&gt;Scientist -->
<g id="edge2" class="edge">
<title>Mia&#45;&gt;Scientist</title>
<path fill="none" stroke="black" d="M66.98,-154.25C84.28,-154.25 107.29,-154.25 128.73,-154.25"/>
<polygon fill="black" stroke="black" points="128.76,-157.75 138.76,-154.25 128.76,-150.75 128.76,-157.75"/>
<text text-anchor="middle" x="107.19" y="-158.05" font-family="Times,serif" font-size="14.00">has</text>
</g>
<!-- Jack -->
<g id="node5" class="node">
<title>Jack</title>
<ellipse fill="none" stroke="black" cx="38.35" cy="-277.25" rx="29.8" ry="29.8"/>
<text text-anchor="middle" x="38.35" y="-273.55" font-family="Times,serif" font-size="14.00">Jack</text>
</g>
<!-- Engineer -->
<g id="node6" class="node">
<title>Engineer</title>
<ellipse fill="none" stroke="black" cx="190.99" cy="-277.25" rx="53.09" ry="53.09"/>
<text text-anchor="middle" x="190.99" y="-273.55" font-family="Times,serif" font-size="14.00">Engineer</text>
</g>
<!-- Jack&#45;&gt;Engineer -->
<g id="edge3" class="edge">
<title>Jack&#45;&gt;Engineer</title>
<path fill="none" stroke="black" d="M68.39,-277.25C85.14,-277.25 106.87,-277.25 127.33,-277.25"/>
<polygon fill="black" stroke="black" points="127.55,-280.75 137.55,-277.25 127.55,-273.75 127.55,-280.75"/>
<text text-anchor="middle" x="107.19" y="-281.05" font-family="Times,serif" font-size="14.00">has</text>
</g>
</g>
</svg>
